# xmcd
#
# Track frame offsets:
#	150
#	11432
#	24237
#	43227
#	55050
#	66517
#	80597
#	97412
#	114407
#	126765
#	144095
#	156795
#	170847
#	182060
#	195460
#
# Disc length: 2868 seconds
#
# Revision: 8
# Processed by: cddbd v1.5.2PL0 Copyright (c) Steve Scherf et al.
# Submitted via: audiograbber 1.83.01
#
DISCID=cc0b320f
DTITLE=Grupo Vocal Garganta Profunda - Grupo Vocal Garganta Profunda - Cantando
DTITLE=a História
DYEAR=2003
DGENRE=Country
TTITLE0=Grupo Vocal Garganta Profunda - Jura
TTITLE1=Grupo Vocal Garganta Profunda - Se você Jurar
TTITLE2=Grupo Vocal Garganta Profunda - Feitiço da Vila
TTITLE3=Grupo Vocal Garganta Profunda - Chiquita Bacana
TTITLE4=Grupo Vocal Garganta Profunda - O Samba da Minha Terra
TTITLE5=Grupo Vocal Garganta Profunda - O Pato
TTITLE6=Grupo Vocal Garganta Profunda - Disparada
TTITLE7=Grupo Vocal Garganta Profunda - Ponteio
TTITLE8=Grupo Vocal Garganta Profunda - O Bom
TTITLE9=Grupo Vocal Garganta Profunda - Tropicália
TTITLE10=Grupo Vocal Garganta Profunda - Meu Caro Amigo
TTITLE11=Grupo Vocal Garganta Profunda - Brasil
TTITLE12=Grupo Vocal Garganta Profunda - Injuriado
TTITLE13=Grupo Vocal Garganta Profunda - Samba do Approach
TTITLE14=Grupo Vocal Garganta Profunda - Parabolicamará
EXTD=
EXTT0=
EXTT1=
EXTT2=
EXTT3=
EXTT4=
EXTT5=
EXTT6=
EXTT7=
EXTT8=
EXTT9=
EXTT10=
EXTT11=
EXTT12=
EXTT13=
EXTT14=
PLAYORDER=
